<svg width="12" height="13" viewBox="0 0 12 13" fill="none" xmlns="http://www.w3.org/2000/svg">
<path d="M11.4136 10.432C11.1189 9.73382 10.6911 9.09964 10.1542 8.5648C9.61898 8.0284 8.98491 7.60074 8.28705 7.30542C8.2808 7.3023 8.27455 7.30073 8.2683 7.29761C9.24174 6.59448 9.87455 5.44917 9.87455 4.15698C9.87455 2.01636 8.14017 0.281982 5.99955 0.281982C3.85893 0.281982 2.12455 2.01636 2.12455 4.15698C2.12455 5.44917 2.75736 6.59448 3.7308 7.29917C3.72455 7.3023 3.7183 7.30386 3.71205 7.30698C3.01205 7.6023 2.38393 8.02573 1.84486 8.56636C1.30847 9.10162 0.880808 9.73569 0.585488 10.4335C0.295367 11.1168 0.138898 11.8492 0.124551 12.5914C0.124134 12.608 0.127059 12.6246 0.133154 12.6402C0.139248 12.6557 0.14839 12.6698 0.160039 12.6818C0.171688 12.6937 0.185609 12.7032 0.200982 12.7097C0.216355 12.7162 0.232869 12.7195 0.249551 12.7195H1.18705C1.2558 12.7195 1.31049 12.6648 1.31205 12.5976C1.3433 11.3914 1.82768 10.2617 2.68393 9.40542C3.56986 8.51948 4.74643 8.03198 5.99955 8.03198C7.25267 8.03198 8.42924 8.51948 9.31517 9.40542C10.1714 10.2617 10.6558 11.3914 10.687 12.5976C10.6886 12.6664 10.7433 12.7195 10.812 12.7195H11.7495C11.7662 12.7195 11.7827 12.7162 11.7981 12.7097C11.8135 12.7032 11.8274 12.6937 11.8391 12.6818C11.8507 12.6698 11.8599 12.6557 11.8659 12.6402C11.872 12.6246 11.875 12.608 11.8745 12.5914C11.8589 11.8445 11.7042 11.1179 11.4136 10.432ZM5.99955 6.84448C5.28236 6.84448 4.60736 6.5648 4.09955 6.05698C3.59174 5.54917 3.31205 4.87417 3.31205 4.15698C3.31205 3.4398 3.59174 2.7648 4.09955 2.25698C4.60736 1.74917 5.28236 1.46948 5.99955 1.46948C6.71674 1.46948 7.39174 1.74917 7.89955 2.25698C8.40736 2.7648 8.68705 3.4398 8.68705 4.15698C8.68705 4.87417 8.40736 5.54917 7.89955 6.05698C7.39174 6.5648 6.71674 6.84448 5.99955 6.84448Z" fill="black"/>
</svg>
