<svg width="12" height="14" viewBox="0 0 12 14" fill="none" xmlns="http://www.w3.org/2000/svg">
<path d="M11.5001 10.502C11.5001 8.7582 10.4782 7.25195 9.00006 6.55039V3.95977C9.00006 3.72383 8.91725 3.4957 8.76412 3.31602L6.38287 0.492578C6.28287 0.373828 6.14069 0.314453 6.00006 0.314453C5.85944 0.314453 5.71725 0.373828 5.61725 0.492578L3.236 3.31602C3.08391 3.49607 3.00035 3.72408 3.00006 3.95977V6.55039C1.52194 7.25195 0.500061 8.7582 0.500061 10.502H2.94537C2.90944 10.6145 2.89069 10.7363 2.89069 10.8738C2.89069 11.2191 3.00944 11.5566 3.22506 11.8238C3.40106 12.0424 3.63416 12.2078 3.8985 12.302C4.25944 13.1457 5.07975 13.6895 6.00006 13.6895C6.45475 13.6895 6.89537 13.5551 7.27194 13.302C7.64069 13.0551 7.92662 12.7098 8.10006 12.302C8.36429 12.2084 8.59741 12.0435 8.7735 11.8254C8.98941 11.5558 9.10731 11.2208 9.10787 10.8754C9.10787 10.7441 9.09069 10.6191 9.05944 10.5035H11.5001V10.502ZM9.911 8.71133C10.0579 8.93945 10.1766 9.18477 10.2626 9.43945H8.93756V7.73164C9.32739 7.98604 9.6591 8.31988 9.911 8.71133ZM4.06256 6.55039V3.9832L6.00006 1.68633L7.93756 3.9832V9.43945H4.06256V6.55039ZM1.73756 9.43945C1.8235 9.18477 1.94225 8.93945 2.08912 8.71133C2.34381 8.31758 2.67506 7.98477 3.06256 7.73164V9.43945H1.73756ZM7.81412 11.2551C7.73287 11.302 7.63912 11.3207 7.54694 11.3082L7.24225 11.2707L7.1985 11.5738C7.11412 12.166 6.5985 12.6129 6.00006 12.6129C5.40162 12.6129 4.886 12.166 4.80162 11.5738L4.75787 11.2691L4.45319 11.3082C4.36056 11.3192 4.26684 11.3001 4.186 11.2535C4.05006 11.1754 3.96569 11.0301 3.96569 10.8723C3.96569 10.7066 4.05787 10.5691 4.19381 10.5004H7.80787C7.94537 10.5707 8.036 10.7082 8.036 10.8723C8.03444 11.0316 7.95006 11.1785 7.81412 11.2551ZM5.25006 5.25195C5.25006 5.45087 5.32908 5.64163 5.46973 5.78228C5.61038 5.92294 5.80115 6.00195 6.00006 6.00195C6.19897 6.00195 6.38974 5.92294 6.53039 5.78228C6.67104 5.64163 6.75006 5.45087 6.75006 5.25195C6.75006 5.05304 6.67104 4.86228 6.53039 4.72162C6.38974 4.58097 6.19897 4.50195 6.00006 4.50195C5.80115 4.50195 5.61038 4.58097 5.46973 4.72162C5.32908 4.86228 5.25006 5.05304 5.25006 5.25195Z" fill="black" fill-opacity="0.85"/>
</svg>
